<svg id="Capa_1" enable-background="new 0 0 512 512" height="512" viewBox="0 0 512 512" width="512" xmlns="http://www.w3.org/2000/svg"><g><g><g><g><g><g><g><g><g><circle cx="256" cy="256" fill="#bfe1ff" r="256"/></g></g></g></g></g></g></g></g><path d="m506.609 308.509-250.609-250.609-66.747 222.45-107.084 120.936 99.866 99.866c23.417 7.056 48.248 10.848 73.965 10.848 123.388 0 226.387-87.293 250.609-203.491z" fill="#87c7ff"/><g><path d="m367.552 414.074-262.167-57.751c-25.303-5.574-41.297-30.605-35.723-55.908 5.574-25.303 30.605-41.297 55.908-35.723l262.167 57.751c25.303 5.574 41.297 30.605 35.723 55.908-5.574 25.303-30.605 41.297-55.908 35.723z" fill="#b46e5a"/></g><g><path d="m387.736 322.443-131.736-29.041v96.1l111.552 24.573c25.303 5.574 50.334-10.42 55.908-35.723 5.573-25.304-10.42-50.335-35.724-55.909z" fill="#a65d4e"/></g><g><path d="m125.57 414.074 262.167-57.751c25.303-5.574 41.297-30.605 35.723-55.908-5.574-25.303-30.605-41.297-55.908-35.723l-262.167 57.751c-25.303 5.574-41.297 30.605-35.723 55.908 5.574 25.303 30.605 41.297 55.908 35.723z" fill="#915041"/></g><g><path d="m423.46 300.416c-5.574-25.303-30.605-41.297-55.908-35.723l-111.552 24.594v96.055l131.736-29.019c25.304-5.573 41.297-30.604 35.724-55.907z" fill="#784132"/></g><g><path d="m352.434 267.709c0 53.259-43.175 96.434-96.434 96.434s-96.434-43.175-96.434-96.434 96.434-209.809 96.434-209.809 96.434 156.55 96.434 209.809z" fill="#fe8205"/></g><g><path d="m256 364.143c.005 0-.005.001 0 0 53.259 0 96.434-43.175 96.434-96.434s-96.434-209.809-96.434-209.809z" fill="#fa5d0f"/></g><g><path d="m314.289 291.324c0 32.192-26.097 58.289-58.289 58.289s-58.289-26.097-58.289-58.289 58.289-126.817 58.289-126.817 58.289 94.625 58.289 126.817z" fill="#ffce00"/></g><g><path d="m256 349.613c32.192 0 58.289-26.096 58.289-58.288s-58.289-126.817-58.289-126.817z" fill="#fdba12"/></g></g></svg>