<svg id="Capa_1" enable-background="new 0 0 512 512" height="512" viewBox="0 0 512 512" width="512" xmlns="http://www.w3.org/2000/svg"><g><g><g><g><g><g><g><g><circle cx="256" cy="256" fill="#bfe1ff" r="256"/></g></g></g></g></g></g></g><path d="m511.553 271.252-215.041-215.041-73.511 19.352-85.044 329.04 107.178 107.17c3.603.151 7.225.227 10.865.227 136.264 0 247.662-106.463 255.553-240.748z" fill="#87c7ff"/><g><path d="m256 161.51c-33.337 0-60.459-27.122-60.459-60.459s27.122-60.46 60.459-60.46 60.459 27.122 60.459 60.459-27.122 60.46-60.459 60.46zm0-89.919c-16.244 0-29.459 13.215-29.459 29.459s13.215 29.459 29.459 29.459 29.459-13.215 29.459-29.459c0-16.243-13.215-29.459-29.459-29.459z" fill="#414952"/></g><g><path d="m316.459 101.05c0-33.297-27.057-60.391-60.339-60.456v31c16.188.066 29.339 13.253 29.339 29.456s-13.15 29.391-29.339 29.456v31c33.282-.065 60.339-27.159 60.339-60.456z" fill="#23272b"/></g><g><g><g><g><g><g><g><circle cx="256" cy="282.715" fill="#555a66" r="169.679"/></g></g></g></g></g></g></g><g><g><g><g><g><g><g><path d="m425.679 282.715c0-93.671-75.903-169.612-169.559-169.678v339.356c93.656-.066 169.559-76.007 169.559-169.678z" fill="#333940"/></g></g></g></g></g></g></g><g><g><g><g><g><g><g><circle cx="256" cy="282.715" fill="#fff" r="124.61"/></g></g></g></g></g></g></g><g><g><g><g><g><g><g><path d="m380.609 282.715c0-68.78-55.724-124.543-124.489-124.608v249.216c68.765-.065 124.489-55.828 124.489-124.608z" fill="#e9edf5"/></g></g></g></g></g></g></g><g><g><path d="m336.343 202.371-53.834 97.04-43.205-43.205z" fill="#fa5d0f"/></g><g><path d="m260.887 277.789 21.622 21.622 53.834-97.04z" fill="#d13400"/></g><g><path d="m175.656 363.058 53.835-97.039 43.205 43.205z" fill="#ffce00"/></g><g><path d="m175.656 363.058 97.04-53.834-21.622-21.622z" fill="#fdba12"/></g></g></g></svg>