<?xml version="1.0" encoding="iso-8859-1"?>
<!-- Generator: Adobe Illustrator 19.0.0, SVG Export Plug-In . SVG Version: 6.00 Build 0)  -->
<svg version="1.1" id="Capa_1" xmlns="http://www.w3.org/2000/svg" xmlns:xlink="http://www.w3.org/1999/xlink" x="0px" y="0px"
	 viewBox="0 0 512 512" style="enable-background:new 0 0 512 512;" xml:space="preserve">
<circle style="fill:#bfe1ff;" cx="256" cy="256" r="256"/>
<path style="fill:#87c7ff;" d="M512,256c0-25.117-3.634-49.382-10.376-72.316l-58.622-58.622
	c-72.277,18.243-60.804-2.182-114.725-10.213c-52.142-7.766-71.024,19.867-72.213,21.699c-0.086-0.066-0.171-0.132-0.259-0.198
	c-2.058-3.042-21.285-29.066-72.081-21.501c-53.921,8.031-42.448,28.456-114.725,10.213c0,0,16.463,20.672,38.104,41.629
	c3.04,3.133,6.24,6.345,9.565,9.565c0.794,0.818,1.597,1.641,2.413,2.469c-24.617,22.197-40.161,54.287-40.161,89.84l0,0
	c0,40.391,17.577,76.875,45.459,102.183L265.44,511.809C402.449,506.84,512,394.223,512,256z"/>
<path style="fill:#FFB84D;" d="M295.004,406.642h-78.009c-75.942,0-138.077-62.135-138.077-138.077l0,0
	c0-66.576,54.471-121.047,121.047-121.047h112.067c66.576,0,121.047,54.471,121.047,121.047l0,0
	C433.081,344.507,370.946,406.642,295.004,406.642z"/>
<path style="fill:#FF8900;" d="M433.08,268.56c0,37.98-15.53,72.5-40.56,97.52c-25.02,25.03-59.54,40.56-97.52,40.56h-39V147.52
	h56.03c30.77,0,58.95,11.63,80.36,30.73C417.32,200.45,433.08,232.75,433.08,268.56z"/>
<path style="fill:#E67500;" d="M328.277,114.849C274.356,106.818,256,136.646,256,136.646s-18.356-29.828-72.277-21.798
	c-53.921,8.031-42.448,28.456-114.725,10.213c0,0,67.688,85.009,108.989,85.009h156.026c41.301,0,108.989-85.009,108.989-85.009
	C370.725,143.305,382.198,122.879,328.277,114.849z"/>
<path style="fill:#9A4C00;" d="M443,125.06c0,0-23.14,29.06-50.61,53.19c-10.13,8.9-20.84,17.13-31.2,22.99
	c-9.62,5.43-18.93,8.83-27.18,8.83H256v-73.42c0,0,18.36-29.83,72.28-21.8S370.72,143.3,443,125.06z"/>
<path style="fill:#FFFFFF;" d="M310.322,179.833c-21.781,0-41.265,9.794-54.322,25.205c-13.057-15.412-32.541-25.205-54.322-25.205
	c-39.312,0-71.181,31.869-71.181,71.181s31.869,71.181,71.181,71.181c21.781,0,41.265-9.794,54.322-25.205
	c13.057,15.412,32.541,25.205,54.322,25.205c39.312,0,71.181-31.869,71.181-71.181S349.634,179.833,310.322,179.833z"/>
<path style="fill:#FFEC97;" d="M381.5,251.01c0,39.32-31.87,71.18-71.18,71.18c-8.99,0-17.58-1.67-25.5-4.72
	c-11.27-4.32-21.15-11.43-28.82-20.48v-91.95c13.06-15.41,32.54-25.21,54.32-25.21c19.94,0,37.96,8.2,50.87,21.41
	C373.76,214.07,381.5,231.64,381.5,251.01z"/>
<circle style="fill:#57555C;" cx="200.92" cy="251.01" r="22.568"/>
<circle style="fill:#2A2A2C;" cx="311.08" cy="257.24" r="22.568"/>
<polygon style="fill:#BE6200;" points="284.815,317.469 256,296.608 227.185,317.469 256,351.286 "/>
<polygon style="fill:#703700;" points="284.82,317.47 256,351.29 256,296.61 "/>
<g>
</g>
<g>
</g>
<g>
</g>
<g>
</g>
<g>
</g>
<g>
</g>
<g>
</g>
<g>
</g>
<g>
</g>
<g>
</g>
<g>
</g>
<g>
</g>
<g>
</g>
<g>
</g>
<g>
</g>
</svg>
