<svg id="Capa_1" enable-background="new 0 0 512 512" height="512" viewBox="0 0 512 512" width="512" xmlns="http://www.w3.org/2000/svg"><g><g><g><g><g><g><g><g><g><circle cx="256" cy="256" fill="#ffce00" r="256"/></g></g></g></g></g></g></g></g><g fill="#ffa300"><path d="m371.189 322.142-7.535 20.88-45.454-45.455-6.07 11.146-98.975-98.975-2.396 26.134-50.351-50.351-20.963 43.725 36.528 36.528-7.251 7.251-63.287-63.287-18.456 46.262 43.775 43.775-43.024 10.713 199.612 199.612c70.27-8.578 131.746-45.628 172.542-99.263z"/><path d="m262 88.116-21.914 43.445 42.533 42.533-32.619 20.783 212.483 212.483c31.13-42.396 49.517-94.731 49.517-151.36 0-9.032-.468-17.955-1.381-26.746l-139.43-139.431-4.812 24.078-47.343-47.343-24.646 39.773 36.809 36.809-8.656 5.516z"/></g><g><g><path d="m333.646 431.238c-18.284-6.803-37.733-6.803-56.017 0-14.256 5.045-32.214-.478-36.952-18.963-2.248-10.256 1.944-23.411 12.104-32.407 11.822-10.488 25.112-18.941 39.501-24.846 8.43-3.497 18.282-3.497 26.711 0 14.388 5.904 27.678 14.358 39.501 24.846 10.161 8.996 14.352 22.151 12.104 32.407-4.738 18.485-22.696 24.008-36.952 18.963z" fill="#b46e5a"/></g><g><path d="m358.494 379.868c-11.822-10.488-25.112-18.942-39.501-24.846-4.445-1.844-9.285-2.706-14.104-2.605v73.736c9.683-.093 19.373 1.594 28.757 5.085 14.256 5.045 32.214-.478 36.952-18.963 2.247-10.256-1.944-23.411-12.104-32.407z" fill="#915041"/></g><g><ellipse cx="305.608" cy="317.196" fill="#b46e5a" rx="18.065" ry="27.385"/></g><g><path d="m305.608 289.812c-.241 0-.48.013-.719.028v54.715c.239.014.478.028.719.028 9.977 0 18.065-12.261 18.065-27.385.001-15.126-8.088-27.386-18.065-27.386z" fill="#915041"/></g><g><g><ellipse cx="359.497" cy="343.011" fill="#915041" rx="18.065" ry="27.385"/></g><g><ellipse cx="251.777" cy="343.011" fill="#b46e5a" rx="18.065" ry="27.385"/></g></g></g><g><g><path d="m333.646 198.92c-18.284-6.803-37.733-6.803-56.017 0-14.256 5.045-32.214-.478-36.952-18.963-2.248-10.256 1.944-23.411 12.104-32.407 11.822-10.488 25.112-18.941 39.501-24.846 8.43-3.497 18.282-3.498 26.711 0 14.388 5.904 27.678 14.358 39.501 24.846 10.161 8.996 14.352 22.151 12.104 32.407-4.738 18.485-22.696 24.007-36.952 18.963z" fill="#b46e5a"/></g><g><path d="m358.494 147.55c-11.822-10.488-25.112-18.941-39.501-24.846-4.445-1.844-9.285-2.706-14.104-2.605v73.736c9.683-.093 19.373 1.594 28.757 5.085 14.256 5.044 32.214-.479 36.952-18.963 2.247-10.256-1.944-23.412-12.104-32.407z" fill="#915041"/></g><g><ellipse cx="305.608" cy="84.878" fill="#b46e5a" rx="18.065" ry="27.385"/></g><g><path d="m305.608 57.493c-.241 0-.48.013-.719.028v54.715c.239.014.478.027.719.027 9.977 0 18.065-12.26 18.065-27.385.001-15.124-8.088-27.385-18.065-27.385z" fill="#915041"/></g><g><g><ellipse cx="359.497" cy="110.692" fill="#915041" rx="18.065" ry="27.385"/></g><g><ellipse cx="251.777" cy="110.692" fill="#b46e5a" rx="18.065" ry="27.385"/></g></g></g><g><g><path d="m175.611 318.834c-18.284-6.803-37.733-6.803-56.017 0-14.256 5.045-32.214-.478-36.952-18.963-2.248-10.256 1.944-23.411 12.104-32.407 11.822-10.488 25.112-18.942 39.501-24.846 8.43-3.497 18.282-3.497 26.712 0 14.388 5.904 27.678 14.358 39.501 24.846 10.161 8.996 14.352 22.151 12.104 32.407-4.739 18.484-22.697 24.007-36.953 18.963z" fill="#b46e5a"/></g><g><path d="m200.459 267.463c-11.822-10.488-25.112-18.941-39.501-24.846-4.442-1.843-9.278-2.705-14.094-2.605v73.736c9.679-.091 19.366 1.595 28.747 5.085 14.256 5.045 32.214-.478 36.952-18.963 2.248-10.256-1.944-23.411-12.104-32.407z" fill="#915041"/></g><g><ellipse cx="147.574" cy="204.792" fill="#b46e5a" rx="18.065" ry="27.385"/></g><g><path d="m147.574 177.406c-.238 0-.474.013-.709.027v54.716c.236.014.471.027.709.027 9.977 0 18.065-12.26 18.065-27.385 0-15.124-8.088-27.385-18.065-27.385z" fill="#915041"/></g><g><g><ellipse cx="201.463" cy="230.606" fill="#915041" rx="18.065" ry="27.385"/></g><g><ellipse cx="93.742" cy="230.606" fill="#b46e5a" rx="18.065" ry="27.385"/></g></g></g></g></svg>